<svg width="23" height="24" viewBox="0 0 23 24" fill="none" xmlns="http://www.w3.org/2000/svg">
<g clip-path="url(#clip0_58_7991)">
<path d="M13.5197 2.00937C12.926 -0.00312501 10.074 -0.00312501 9.48031 2.00937L9.33656 2.49812C9.24786 2.79942 9.09284 3.07703 8.88288 3.31062C8.67291 3.5442 8.41333 3.72783 8.12316 3.84803C7.83299 3.96823 7.5196 4.02196 7.20597 4.00528C6.89233 3.9886 6.5864 3.90193 6.31062 3.75163L5.865 3.50725C4.02069 2.50388 2.00388 4.52069 3.00869 6.36356L3.25163 6.81062C3.89275 7.98937 3.28469 9.45706 1.99812 9.83656L1.50937 9.98031C-0.503125 10.574 -0.503125 13.426 1.50937 14.0197L1.99812 14.1634C2.29942 14.2521 2.57703 14.4072 2.81062 14.6171C3.0442 14.8271 3.22783 15.0867 3.34803 15.3768C3.46823 15.667 3.52196 15.9804 3.50528 16.294C3.4886 16.6077 3.40193 16.9136 3.25163 17.1894L3.00725 17.635C2.00388 19.4793 4.02069 21.4961 5.86356 20.4913L6.31062 20.2484C6.5864 20.0981 6.89233 20.0114 7.20597 19.9947C7.5196 19.978 7.83299 20.0318 8.12316 20.152C8.41333 20.2722 8.67291 20.4558 8.88288 20.6894C9.09284 20.923 9.24786 21.2006 9.33656 21.5019L9.48031 21.9906C10.074 24.0031 12.926 24.0031 13.5197 21.9906L13.6634 21.5019C13.7521 21.2006 13.9072 20.923 14.1171 20.6894C14.3271 20.4558 14.5867 20.2722 14.8768 20.152C15.167 20.0318 15.4804 19.978 15.794 19.9947C16.1077 20.0114 16.4136 20.0981 16.6894 20.2484L17.135 20.4928C18.9793 21.4961 20.9961 19.4793 19.9913 17.6364L19.7484 17.1894C19.5981 16.9136 19.5114 16.6077 19.4947 16.294C19.478 15.9804 19.5318 15.667 19.652 15.3768C19.7722 15.0867 19.9558 14.8271 20.1894 14.6171C20.423 14.4072 20.7006 14.2521 21.0019 14.1634L21.4906 14.0197C23.5031 13.426 23.5031 10.574 21.4906 9.98031L21.0019 9.83656C20.7006 9.74786 20.423 9.59284 20.1894 9.38288C19.9558 9.17291 19.7722 8.91333 19.652 8.62316C19.5318 8.33299 19.478 8.0196 19.4947 7.70597C19.5114 7.39233 19.5981 7.0864 19.7484 6.81062L19.9928 6.365C20.9961 4.52069 18.9793 2.50388 17.1364 3.50869L16.6894 3.75163C16.4136 3.90193 16.1077 3.9886 15.794 4.00528C15.4804 4.02196 15.167 3.96823 14.8768 3.84803C14.5867 3.72783 14.3271 3.5442 14.1171 3.31062C13.9072 3.07703 13.7521 2.79942 13.6634 2.49812L13.5197 2.00937ZM11.5 16.2119C10.3829 16.2119 9.31164 15.7681 8.52176 14.9782C7.73188 14.1884 7.28813 13.1171 7.28813 12C7.28813 10.8829 7.73188 9.81164 8.52176 9.02176C9.31164 8.23188 10.3829 7.78813 11.5 7.78813C12.6167 7.78813 13.6876 8.23172 14.4772 9.02133C15.2668 9.81094 15.7104 10.8819 15.7104 11.9986C15.7104 13.1152 15.2668 14.1862 14.4772 14.9758C13.6876 15.7654 12.6167 16.209 11.5 16.209V16.2119Z" fill="#74C847"/>
</g>
<defs>
<clipPath id="clip0_58_7991">
<rect width="23" height="23" fill="white" transform="translate(0 0.5)"/>
</clipPath>
</defs>
</svg>
