<svg width="24" height="25" viewBox="0 0 24 25" fill="none" xmlns="http://www.w3.org/2000/svg">
<path d="M6.57167 2.5C4.97167 2.5 4.17083 2.5 3.55917 2.81083C3.02176 3.0848 2.5848 3.52176 2.31083 4.05917C1.99917 4.67083 2 5.47167 2 7.07167V15.0717C2 16.6717 2 17.4717 2.31083 18.0825C2.585 18.62 3.02167 19.0575 3.55917 19.3308C4.17083 19.6425 4.97167 19.6433 6.57167 19.6433H16.2858V22.5L16.9467 22.17C18.7808 21.2525 19.6967 20.7933 20.3675 20.1092C20.9602 19.5047 21.4111 18.776 21.6875 17.9758C22 17.0692 22 16.0425 22 13.9917V7.07167C22 5.47167 22 4.67083 21.6892 4.05917C21.4152 3.52176 20.9782 3.0848 20.4408 2.81083C19.8292 2.49917 19.0283 2.5 17.4283 2.5H6.57167ZM7.71417 11.0708H16.2858C16.2885 12.2075 15.8395 13.2987 15.0376 14.1043C14.2357 14.9099 13.1467 15.364 12.01 15.3667C10.8733 15.3693 9.78215 14.9203 8.97653 14.1184C8.1709 13.3166 7.71682 12.2275 7.71417 11.0908V11.0708Z" fill="#74C947"/>
</svg>
