<svg width="24" height="25" viewBox="0 0 24 25" fill="none" xmlns="http://www.w3.org/2000/svg">
<path d="M18.0001 14.2139C18.6821 14.2139 19.3362 14.4848 19.8184 14.967C20.3006 15.4493 20.5716 16.1033 20.5716 16.7853V17.3982C20.5716 20.4642 16.963 22.7853 12.0001 22.7853C7.03728 22.7853 3.42871 20.585 3.42871 17.3982V16.7853C3.42871 16.1033 3.69963 15.4493 4.18186 14.967C4.6641 14.4848 5.31815 14.2139 6.00014 14.2139H18.0001ZM12.0001 2.21387C12.6755 2.21387 13.3443 2.34689 13.9682 2.60534C14.5922 2.8638 15.1591 3.24262 15.6367 3.72018C16.1142 4.19773 16.4931 4.76468 16.7515 5.38864C17.01 6.0126 17.143 6.68135 17.143 7.35672C17.143 8.03209 17.01 8.70085 16.7515 9.32481C16.4931 9.94877 16.1142 10.5157 15.6367 10.9933C15.1591 11.4708 14.5922 11.8497 13.9682 12.1081C13.3443 12.3666 12.6755 12.4996 12.0001 12.4996C10.6362 12.4996 9.32806 11.9577 8.36359 10.9933C7.39912 10.0288 6.85728 8.7207 6.85728 7.35672C6.85728 5.99275 7.39912 4.68465 8.36359 3.72018C9.32806 2.7557 10.6362 2.21387 12.0001 2.21387Z" fill="#74C947"/>
</svg>
