<svg width="24" height="25" viewBox="0 0 24 25" fill="none" xmlns="http://www.w3.org/2000/svg">
<path d="M2.75578 21.0842C2.60813 21.0333 2.48004 20.9376 2.38937 20.8105C2.2987 20.6834 2.24998 20.5311 2.25 20.3749C2.25 16.9484 2.93813 14.2081 4.29609 12.2295C5.93672 9.83884 8.52469 8.55165 12 8.39181V4.62493C12 4.47808 12.0431 4.33445 12.124 4.21188C12.2049 4.08931 12.32 3.99318 12.4551 3.93543C12.5901 3.87768 12.7391 3.86084 12.8836 3.887C13.0281 3.91316 13.1618 3.98117 13.268 4.08259L21.518 11.9576C21.5913 12.0276 21.6496 12.1118 21.6895 12.205C21.7294 12.2982 21.7499 12.3986 21.7499 12.4999C21.7499 12.6013 21.7294 12.7017 21.6895 12.7949C21.6496 12.8881 21.5913 12.9723 21.518 13.0423L13.268 20.9173C13.1618 21.0187 13.0281 21.0867 12.8836 21.1129C12.7391 21.139 12.5901 21.1222 12.4551 21.0644C12.32 21.0067 12.2049 20.9106 12.124 20.788C12.0431 20.6654 12 20.5218 12 20.3749V16.6357C9.89062 16.6995 8.29687 17.0412 7.02797 17.697C5.65687 18.4057 4.66266 19.4646 3.59109 20.8376C3.49496 20.9607 3.3628 21.0507 3.21306 21.0951C3.06331 21.1394 2.90345 21.1359 2.75578 21.0851V21.0842Z" fill="#74C947"/>
</svg>
