<svg width="34" height="34" viewBox="0 0 34 34" fill="none" xmlns="http://www.w3.org/2000/svg">
<path d="M17 0C21.6272 0 22.1972 0.0335306 24.0079 0.100592C25.785 0.167653 27.0256 0.469428 28.1321 0.905325C29.2722 1.34122 30.211 1.91124 31.1499 2.8501C32.0888 3.78895 32.6588 4.72781 33.0947 5.86785C33.5306 6.97436 33.8323 8.21499 33.8994 9.99211C33.9665 11.8028 34 12.3728 34 17C34 21.6272 33.9665 22.1972 33.8994 24.0079C33.8323 25.785 33.5306 27.0256 33.0947 28.1321C32.6588 29.2722 32.0888 30.211 31.1499 31.1499C30.211 32.0888 29.2722 32.6588 28.1321 33.0947C27.0256 33.5306 25.785 33.8323 24.0079 33.8994C22.1972 33.9665 21.6272 34 17 34C12.3728 34 11.8028 33.9665 9.99211 33.8994C8.21499 33.8323 6.97436 33.5306 5.86785 33.0947C4.72781 32.6588 3.78895 32.0888 2.8501 31.1499C1.91124 30.211 1.34122 29.2722 0.905325 28.1321C0.469428 27.0256 0.167653 25.785 0.100592 24.0079C0.0335306 22.1972 0 21.6272 0 17C0 12.3728 0.0335306 11.8028 0.100592 9.99211C0.167653 8.21499 0.469428 6.97436 0.905325 5.86785C1.34122 4.72781 1.91124 3.78895 2.8501 2.8501C3.78895 1.91124 4.72781 1.34122 5.86785 0.905325C6.97436 0.469428 8.21499 0.167653 9.99211 0.100592C11.8028 0.0335306 12.3728 0 17 0ZM17 2.21302C12.1716 2.21302 11.6016 2.24655 9.72387 2.31361C7.98028 2.38067 7.00789 2.71598 6.37081 2.95069C4.72781 3.6213 3.6213 4.72781 2.95069 6.37081C2.71598 7.00789 2.38067 7.98028 2.31361 9.72387C2.24655 11.6016 2.21302 12.1716 2.21302 17C2.21302 21.8284 2.24655 22.3984 2.31361 24.2761C2.38067 26.0197 2.71598 26.9921 2.95069 27.6292C3.6213 29.2722 4.72781 30.3787 6.37081 31.0493C7.00789 31.284 7.98028 31.6193 9.72387 31.6864C11.6016 31.7535 12.1716 31.787 17 31.787C21.8284 31.787 22.3984 31.7535 24.2761 31.6864C26.0197 31.6193 26.9921 31.284 27.6292 31.0493C29.2722 30.3787 30.3787 29.2722 31.0493 27.6292C31.284 26.9921 31.6193 26.0197 31.6864 24.2761C31.7535 22.3984 31.787 21.8284 31.787 17C31.787 12.1716 31.7535 11.6016 31.6864 9.72387C31.6193 7.98028 31.284 7.00789 31.0493 6.37081C30.3787 4.72781 29.2722 3.6213 27.6292 2.95069C26.9921 2.71598 26.0197 2.38067 24.2761 2.31361C22.3984 2.24655 21.8284 2.21302 17 2.21302ZM17 23.8067C20.7554 23.8067 23.8067 20.7554 23.8067 17C23.8067 13.2446 20.7554 10.1933 17 10.1933C13.2446 10.1933 10.1933 13.2446 10.1933 17C10.1933 20.7554 13.2446 23.8067 17 23.8067ZM17 8.28205C21.8284 8.28205 25.7179 12.1716 25.7179 17C25.7179 21.8284 21.8284 25.7179 17 25.7179C12.1716 25.7179 8.28205 21.8284 8.28205 17C8.28205 12.1716 12.1716 8.28205 17 8.28205ZM28.1321 7.94675C28.1321 9.08678 27.1933 9.95858 26.0533 9.95858C24.9132 9.95858 24.0414 9.08678 24.0414 7.94675C24.0414 6.80671 24.9132 5.86785 26.0533 5.86785C27.1933 5.86785 28.1321 6.80671 28.1321 7.94675Z" fill="#74C947"/>
</svg>
