<svg width="36" height="31" viewBox="0 0 36 31" fill="none" xmlns="http://www.w3.org/2000/svg">
<path d="M21.006 12.8326C20.8634 12.8316 20.7262 12.8878 20.6244 12.9889C20.5225 13.09 20.4643 13.2279 20.4624 13.3723V17.4061C20.4643 17.5509 20.5228 17.689 20.625 17.7902C20.7272 17.8914 20.8649 17.9474 21.0078 17.9459H33.0012C33.1441 17.9474 33.2818 17.8914 33.384 17.7902C33.4862 17.689 33.5447 17.5509 33.5466 17.4061V13.3723C33.5447 13.2276 33.4862 13.0895 33.384 12.9883C33.2818 12.8871 33.1441 12.8311 33.0012 12.8326H21.006ZM28.3608 0.00182367C30.0204 0.0820614 31.2138 0.413953 31.9698 1.11786C32.7168 1.81447 33.1002 2.82291 33.1758 4.15777V7.98183C33.172 8.30749 33.0408 8.61831 32.8109 8.84603C32.5811 9.07375 32.2715 9.19974 31.95 9.19633C31.7907 9.19826 31.6325 9.16838 31.4846 9.10838C31.3367 9.04839 31.2019 8.95946 31.0879 8.84668C30.9739 8.7339 30.8829 8.59948 30.8202 8.45109C30.7575 8.30269 30.7243 8.14324 30.7224 7.98183L30.7242 4.22707C30.6846 3.53411 30.5208 3.10374 30.2868 2.88491C30.06 2.67337 29.3688 2.48372 28.3014 2.42901H4.7646C3.798 2.46549 3.1698 2.65149 2.8656 2.91591C2.6316 3.11833 2.4552 3.67635 2.4534 4.64102L2.448 26.1046C2.538 27.0419 2.7414 27.6674 3.0024 27.9793C3.2004 28.2163 3.8142 28.4534 4.7178 28.5701H28.3266C29.4318 28.592 30.0834 28.4242 30.303 28.1999C30.546 27.9501 30.7224 27.2936 30.7224 26.2195V22.4903C30.7224 21.821 31.2714 21.2758 31.95 21.2758C32.6268 21.2758 33.1758 21.821 33.1758 22.4903V26.2195C33.1758 27.8607 32.8446 29.088 32.0688 29.8849C31.2696 30.7055 29.9988 31.0338 28.3014 30.9973L4.572 30.9918C2.9574 30.8022 1.8 30.3536 1.1106 29.5275C0.486 28.7798 0.1386 27.713 0 26.2213V4.6392C0.0036 3.04174 0.3816 1.84 1.2492 1.08868C2.0448 0.395718 3.1932 0.0583547 4.7178 0H28.3608V0.00182367ZM33.0012 10.4035C34.6572 10.4035 36 11.7329 36 13.3723V17.4061C36 19.0455 34.6572 20.3749 33.0012 20.3749H21.0078C19.3518 20.3749 18.009 19.0437 18.009 17.4061V13.3723C18.009 11.7329 19.3518 10.4035 21.0078 10.4035H33.0012ZM24.0066 13.9413C23.1786 13.9413 22.5072 14.5978 22.5072 15.4056C22.5072 16.2153 23.1786 16.87 24.0066 16.87C24.8346 16.87 25.506 16.2135 25.506 15.4056C25.506 14.596 24.8346 13.9395 24.0066 13.9395V13.9413Z" fill="#74C947"/>
</svg>
