<svg width="32" height="32" viewBox="0 0 32 32" fill="none" xmlns="http://www.w3.org/2000/svg">
<path d="M25.0566 19.5332C25.1916 19.5221 25.3266 19.5595 25.4365 19.6387L25.4443 19.6436C25.518 19.6958 25.578 19.7647 25.6201 19.8438L25.6562 19.9258L26.2246 21.6699L26.2285 21.6826C26.4123 22.2259 26.7189 22.72 27.125 23.125C27.531 23.5299 28.0256 23.8354 28.5693 24.0176L28.5791 24.0205L30.3252 24.5898L30.3359 24.5938L30.3477 24.5967C30.478 24.6367 30.5894 24.7225 30.6621 24.8379C30.7349 24.9536 30.7637 25.0923 30.7432 25.2275L30.7412 25.2432C30.7269 25.3455 30.6841 25.442 30.6182 25.5215C30.5686 25.5812 30.5074 25.6297 30.4385 25.6641L30.3682 25.6934L28.6133 26.2656L28.6084 26.2676C28.0609 26.4487 27.563 26.7553 27.1553 27.1631C26.7475 27.5709 26.4408 28.0687 26.2598 28.6162L26.2588 28.6221L25.6924 30.3564C25.6522 30.471 25.5781 30.5701 25.4785 30.6396L25.4736 30.6436C25.3758 30.7127 25.2584 30.7502 25.1387 30.75C25.0187 30.7497 24.9014 30.7122 24.8037 30.6426L24.8018 30.6406L24.7334 30.584C24.6907 30.5425 24.6541 30.4949 24.626 30.4424L24.5908 30.3604L24.0205 28.6162C23.8425 28.0646 23.537 27.5654 23.127 27.1553C22.7178 26.7461 22.2199 26.443 21.6807 26.2598L21.6631 26.2539L19.9229 25.6904H19.9238C19.8085 25.6527 19.7073 25.5796 19.6357 25.4814C19.582 25.4077 19.5467 25.3226 19.5322 25.2334L19.5254 25.1436C19.5247 25.0222 19.5616 24.9035 19.6318 24.8047C19.6846 24.7306 19.7543 24.6699 19.834 24.6279L19.918 24.5918L21.6699 24.0205L21.6826 24.0166L21.6943 24.0127C22.2318 23.8252 22.7189 23.516 23.1172 23.1094C23.5156 22.7025 23.8149 22.2084 23.9912 21.667L23.9922 21.666L24.5537 19.9326C24.5823 19.8467 24.6301 19.768 24.6943 19.7041L24.7002 19.6992C24.7956 19.6032 24.9219 19.5444 25.0566 19.5332ZM11.0479 1.29395C11.2313 1.24136 11.4252 1.23604 11.6113 1.27832C11.7974 1.3206 11.9695 1.40944 12.1123 1.53613C12.255 1.66279 12.3636 1.82318 12.4277 2.00293L13.4502 5.14258L13.4531 5.15332C13.7782 6.12353 14.3246 7.00472 15.0488 7.72754C15.7731 8.45043 16.656 8.99525 17.627 9.31836L17.6348 9.32129L20.7773 10.3428L20.7891 10.3467L20.8008 10.3496C20.9435 10.393 21.0764 10.4645 21.1914 10.5596C21.3064 10.6546 21.4013 10.7722 21.4707 10.9043C21.54 11.0363 21.5825 11.1806 21.5957 11.3291C21.6089 11.4777 21.592 11.6274 21.5469 11.7695C21.4934 11.9379 21.4018 12.0925 21.2793 12.2197C21.1576 12.346 21.0085 12.4421 20.8438 12.502L17.6992 13.5215L17.6875 13.5254C16.7187 13.8504 15.8384 14.3961 15.1152 15.1182L15.1133 15.1201C14.3918 15.8445 13.8473 16.7265 13.5234 17.6953L13.5205 17.7051L12.5068 20.8154C12.423 21.048 12.2727 21.2505 12.0713 21.3994C11.8822 21.5328 11.6572 21.6058 11.4258 21.6064C11.192 21.607 10.9634 21.5343 10.7725 21.3994H10.7715C10.6277 21.2981 10.5103 21.1648 10.4277 21.0117L10.3574 20.8525L9.33398 17.7031L9.33301 17.7012C9.01353 16.723 8.46901 15.8329 7.74316 15.1035C7.01743 14.3744 6.13063 13.826 5.1543 13.502L5.14551 13.499L2.02441 12.4873C1.79862 12.4102 1.60002 12.2637 1.45898 12.0664C1.35802 11.9226 1.29092 11.7576 1.26367 11.584C1.24314 11.4531 1.24584 11.3199 1.27051 11.1904L1.30273 11.0625C1.35783 10.8972 1.44856 10.7458 1.56934 10.6201C1.69 10.4946 1.83726 10.3975 2 10.3359L5.14355 9.32422L5.15625 9.32031L5.16895 9.31543C6.11403 8.98882 6.97193 8.45052 7.67676 7.74121C8.38172 7.03176 8.91471 6.17003 9.23535 5.22266L9.24023 5.20996L10.2783 2.02734C10.336 1.85922 10.4321 1.70685 10.5586 1.58203L10.5615 1.5791C10.697 1.44464 10.8644 1.34653 11.0479 1.29395Z" stroke="#74C947" stroke-width="2.5"/>
</svg>
