<svg width="31" height="31" viewBox="0 0 31 31" fill="none" xmlns="http://www.w3.org/2000/svg">
<path d="M28.8436 0H23.4527V2.21429H28.8436V28.7857H23.4527V31H28.8436C29.415 30.9982 29.9625 30.7644 30.3665 30.3495C30.7705 29.9346 30.9982 29.3724 31 28.7857V2.21429C30.9982 1.62756 30.7705 1.06536 30.3665 0.650485C29.9625 0.235605 29.415 0.0017523 28.8436 0ZM13.7491 16.6071H7.27997C7.13612 16.5983 6.99208 16.6208 6.85735 16.6733C6.72262 16.7258 6.60027 16.8071 6.49837 16.9117C6.39648 17.0163 6.31736 17.142 6.26623 17.2803C6.2151 17.4187 6.19314 17.5666 6.20179 17.7143V24.3571C6.19314 24.5049 6.2151 24.6528 6.26623 24.7911C6.31736 24.9295 6.39648 25.0551 6.49837 25.1597C6.60027 25.2644 6.72262 25.3456 6.85735 25.3981C6.99208 25.4506 7.13612 25.4732 7.27997 25.4643H13.7491C13.8929 25.4732 14.0369 25.4506 14.1717 25.3981C14.3064 25.3456 14.4288 25.2644 14.5306 25.1597C14.6325 25.0551 14.7117 24.9295 14.7628 24.7911C14.8139 24.6528 14.8359 24.5049 14.8272 24.3571V17.7143C14.8359 17.5666 14.8139 17.4187 14.7628 17.2803C14.7117 17.142 14.6325 17.0163 14.5306 16.9117C14.4288 16.8071 14.3064 16.7258 14.1717 16.6733C14.0369 16.6208 13.8929 16.5983 13.7491 16.6071ZM12.6709 23.25H8.35815V18.8214H12.6709V23.25Z" fill="#74C947"/>
<path d="M25.6841 24.5524V17.7632C25.6927 17.6123 25.6707 17.4611 25.6194 17.3197C25.5681 17.1783 25.4886 17.0499 25.3863 16.943C25.284 16.836 25.1612 16.753 25.026 16.6993C24.8907 16.6457 24.7461 16.6226 24.6017 16.6317H18.1077C17.9633 16.6226 17.8187 16.6457 17.6835 16.6993C17.5482 16.753 17.4254 16.836 17.3231 16.943C17.2208 17.0499 17.1414 17.1783 17.0901 17.3197C17.0388 17.4611 17.0167 17.6123 17.0254 17.7632V24.5524C17.0167 24.7034 17.0388 24.8546 17.0901 24.996C17.1414 25.1373 17.2208 25.2658 17.3231 25.3727C17.4254 25.4796 17.5482 25.5627 17.6835 25.6163C17.8187 25.67 17.9633 25.693 18.1077 25.684H24.6017C24.8886 25.6834 25.1636 25.564 25.3664 25.3519C25.5693 25.1398 25.6835 24.8523 25.6841 24.5524ZM23.5194 23.4209H19.1901V18.8948H23.5194V23.4209ZM13.7784 5.31638H7.28437C7.13998 5.30731 6.99538 5.33036 6.86013 5.38401C6.72488 5.43767 6.60206 5.5207 6.49977 5.62764C6.39748 5.73458 6.31805 5.86299 6.26673 6.00438C6.21541 6.14578 6.19336 6.29695 6.20204 6.44791V13.2371C6.19336 13.3881 6.21541 13.5392 6.26673 13.6806C6.31805 13.822 6.39748 13.9504 6.49977 14.0574C6.60206 14.1643 6.72488 14.2474 6.86013 14.301C6.99538 14.3547 7.13998 14.3777 7.28437 14.3686H13.7784C13.9228 14.3777 14.0674 14.3547 14.2026 14.301C14.3379 14.2474 14.4607 14.1643 14.563 14.0574C14.6653 13.9504 14.7447 13.822 14.796 13.6806C14.8473 13.5392 14.8694 13.3881 14.8607 13.2371V6.44791C14.8694 6.29695 14.8473 6.14578 14.796 6.00438C14.7447 5.86299 14.6653 5.73458 14.563 5.62764C14.4607 5.5207 14.3379 5.43767 14.2026 5.38401C14.0674 5.33036 13.9228 5.30731 13.7784 5.31638ZM12.696 12.1056H8.36671V7.57944H12.696V12.1056ZM18.1077 14.3686H24.6017C24.7461 14.3777 24.8907 14.3547 25.026 14.301C25.1612 14.2474 25.284 14.1643 25.3863 14.0574C25.4886 13.9504 25.5681 13.822 25.6194 13.6806C25.6707 13.5392 25.6927 13.3881 25.6841 13.2371V6.44791C25.6927 6.29695 25.6707 6.14578 25.6194 6.00438C25.5681 5.86299 25.4886 5.73458 25.3863 5.62764C25.284 5.5207 25.1612 5.43767 25.026 5.38401C24.8907 5.33036 24.7461 5.30731 24.6017 5.31638H18.1077C17.9633 5.30731 17.8187 5.33036 17.6835 5.38401C17.5482 5.43767 17.4254 5.5207 17.3231 5.62764C17.2208 5.73458 17.1414 5.86299 17.0901 6.00438C17.0388 6.14578 17.0167 6.29695 17.0254 6.44791V13.2371C17.026 13.537 17.1402 13.8245 17.343 14.0366C17.5459 14.2486 17.8208 14.368 18.1077 14.3686ZM19.1901 7.57944H23.5194V12.1056H19.1901V7.57944Z" fill="#74C947"/>
<path d="M2.27755 2.21429H7.97143V0H2.27755C1.67406 0.0017523 1.0958 0.235605 0.66907 0.650485C0.242337 1.06536 0.00180237 1.62756 0 2.21429V28.7857C0.00180237 29.3724 0.242337 29.9346 0.66907 30.3495C1.0958 30.7644 1.67406 30.9982 2.27755 31H7.97143V28.7857H2.27755V2.21429Z" fill="#74C947"/>
</svg>
