<svg width="35" height="35" viewBox="0 0 35 35" fill="none" xmlns="http://www.w3.org/2000/svg">
<path d="M9.34211 25.6579V19.1316M17.5 25.6579V9.34211M25.6579 25.6579V15.8684M2 17.5C2 10.1938 2 6.53905 4.26953 4.26953C6.53905 2 10.1922 2 17.5 2C24.8062 2 28.4609 2 30.7305 4.26953C33 6.53905 33 10.1922 33 17.5C33 24.8062 33 28.4609 30.7305 30.7305C28.4609 33 24.8078 33 17.5 33C10.1938 33 6.53905 33 4.26953 30.7305C2 28.4609 2 24.8078 2 17.5Z" stroke="#74C947" stroke-width="2.5" stroke-linecap="round" stroke-linejoin="round"/>
</svg>
