<svg width="35" height="35" viewBox="0 0 35 35" fill="none" xmlns="http://www.w3.org/2000/svg">
<path d="M17.5002 0.863281C8.20221 0.863281 0.637695 8.4278 0.637695 17.7258V24.7119C0.637695 26.4386 2.15026 27.8433 4.0102 27.8433H5.69645C6.14367 27.8433 6.57257 27.6656 6.8888 27.3494C7.20504 27.0332 7.3827 26.6043 7.3827 26.157V17.4846C7.3827 17.0374 7.20504 16.6085 6.8888 16.2923C6.57257 15.9761 6.14367 15.7984 5.69645 15.7984H4.16533C5.10289 9.27261 10.7181 4.23578 17.5002 4.23578C24.2823 4.23578 29.8975 9.27261 30.8351 15.7984H29.3039C28.8567 15.7984 28.4278 15.9761 28.1116 16.2923C27.7954 16.6085 27.6177 17.0374 27.6177 17.4846V27.8433C27.6177 29.7032 26.1051 31.2158 24.2452 31.2158H20.8727V29.5295H14.1277V34.5883H24.2452C27.9651 34.5883 30.9902 31.5631 30.9902 27.8433C32.8501 27.8433 34.3627 26.4386 34.3627 24.7119V17.7258C34.3627 8.4278 26.7982 0.863281 17.5002 0.863281Z" fill="#74C947"/>
</svg>
