<svg width="16" height="32" viewBox="0 0 16 32" fill="none" xmlns="http://www.w3.org/2000/svg">
<path d="M2.73446 16L15.6678 2.04485C15.7743 1.93239 15.8585 1.79887 15.9155 1.65202C15.9725 1.50518 16.0012 1.34792 16 1.18935C15.9987 1.03077 15.9675 0.874036 15.9082 0.728204C15.8489 0.582373 15.7626 0.450343 15.6543 0.339755C15.5461 0.229167 15.418 0.142216 15.2776 0.0839346C15.1371 0.0256534 14.987 -0.00280128 14.836 0.000217317C14.685 0.00323591 14.5361 0.0376679 14.3978 0.101521C14.2596 0.165373 14.1347 0.257379 14.0306 0.372213L0.323547 15.1637C0.11608 15.3876 0 15.6876 0 16C0 16.3124 0.11608 16.6124 0.323547 16.8363L14.0306 31.6278C14.1347 31.7426 14.2596 31.8346 14.3978 31.8985C14.5361 31.9623 14.685 31.9968 14.836 31.9998C14.987 32.0028 15.1371 31.9743 15.2776 31.9161C15.418 31.8578 15.5461 31.7708 15.6543 31.6602C15.7626 31.5497 15.8489 31.4176 15.9082 31.2718C15.9675 31.126 15.9987 30.9692 16 30.8107C16.0012 30.6521 15.9725 30.4948 15.9155 30.348C15.8585 30.2011 15.7743 30.0676 15.6678 29.9552L2.73446 16Z" fill="#74C947"/>
</svg>
