<svg width="24" height="25" viewBox="0 0 24 25" fill="none" xmlns="http://www.w3.org/2000/svg">
<path d="M17.7668 11.25H6.26262L5.93221 13.75H18.0672L17.7668 11.25ZM2.56806 21.0937L3.85965 11.25H1.18636C0.785863 11.25 0.470674 11.0833 0.24079 10.75C0.010907 10.4167 -0.0543737 10.0521 0.0449488 9.65625L1.75706 3.40625C1.83716 3.13542 1.97733 2.91667 2.17758 2.75C2.37783 2.58333 2.61812 2.5 2.89847 2.5H21.1009C21.3813 2.5 21.6216 2.58333 21.8218 2.75C22.0221 2.91667 22.1622 3.13542 22.2423 3.40625L23.9544 9.65625C24.0546 10.0521 23.9897 10.4167 23.7598 10.75C23.5299 11.0833 23.2143 11.25 22.813 11.25H20.1698L21.4313 21.0937C21.4714 21.4687 21.3761 21.7971 21.1454 22.0787C20.9147 22.3604 20.6195 22.5008 20.2599 22.5C19.9595 22.5 19.694 22.4008 19.4633 22.2025C19.2326 22.0042 19.0976 21.7492 19.0584 21.4375L18.3976 16.25H5.6018L4.94099 21.4375C4.90094 21.75 4.76597 22.0054 4.53609 22.2037C4.3062 22.4021 4.04068 22.5008 3.73951 22.5C3.37906 22.5 3.0839 22.3596 2.85401 22.0787C2.62413 21.7979 2.52881 21.4696 2.56806 21.0937Z" fill="#74C947"/>
</svg>
