<svg width="20" height="20" viewBox="0 0 20 20" fill="none" xmlns="http://www.w3.org/2000/svg">
<path fill-rule="evenodd" clip-rule="evenodd" d="M8 0C8.26522 0 8.51957 0.105357 8.70711 0.292893C8.89464 0.48043 9 0.734784 9 1V3H11V1C11 0.734784 11.1054 0.48043 11.2929 0.292893C11.4804 0.105357 11.7348 0 12 0C12.2652 0 12.5196 0.105357 12.7071 0.292893C12.8946 0.48043 13 0.734784 13 1V3H14.6C15.2365 3 15.847 3.25286 16.2971 3.70294C16.7471 4.15303 17 4.76348 17 5.4V7H19C19.2652 7 19.5196 7.10536 19.7071 7.29289C19.8946 7.48043 20 7.73478 20 8C20 8.26522 19.8946 8.51957 19.7071 8.70711C19.5196 8.89464 19.2652 9 19 9H17V11H19C19.2652 11 19.5196 11.1054 19.7071 11.2929C19.8946 11.4804 20 11.7348 20 12C20 12.2652 19.8946 12.5196 19.7071 12.7071C19.5196 12.8946 19.2652 13 19 13H17V14.6C17 15.2365 16.7471 15.847 16.2971 16.2971C15.847 16.7471 15.2365 17 14.6 17H13V19C13 19.2652 12.8946 19.5196 12.7071 19.7071C12.5196 19.8946 12.2652 20 12 20C11.7348 20 11.4804 19.8946 11.2929 19.7071C11.1054 19.5196 11 19.2652 11 19V17H9V19C9 19.2652 8.89464 19.5196 8.70711 19.7071C8.51957 19.8946 8.26522 20 8 20C7.73478 20 7.48043 19.8946 7.29289 19.7071C7.10536 19.5196 7 19.2652 7 19V17H5.4C4.76348 17 4.15303 16.7471 3.70294 16.2971C3.25286 15.847 3 15.2365 3 14.6V13H1C0.734784 13 0.48043 12.8946 0.292893 12.7071C0.105357 12.5196 0 12.2652 0 12C0 11.7348 0.105357 11.4804 0.292893 11.2929C0.48043 11.1054 0.734784 11 1 11H3V9H1C0.734784 9 0.48043 8.89464 0.292893 8.70711C0.105357 8.51957 0 8.26522 0 8C0 7.73478 0.105357 7.48043 0.292893 7.29289C0.48043 7.10536 0.734784 7 1 7H3V5.4C3 4.76348 3.25286 4.15303 3.70294 3.70294C4.15303 3.25286 4.76348 3 5.4 3H7V1C7 0.734784 7.10536 0.48043 7.29289 0.292893C7.48043 0.105357 7.73478 0 8 0ZM11.4 7H8.6C8.38988 7 8.18183 7.04139 7.98771 7.12179C7.79359 7.2022 7.6172 7.32006 7.46863 7.46863C7.32006 7.6172 7.2022 7.79359 7.12179 7.98771C7.04139 8.18183 7 8.38988 7 8.6V11.4C7 11.8243 7.16857 12.2313 7.46863 12.5314C7.76869 12.8314 8.17565 13 8.6 13H11.4C11.8243 13 12.2313 12.8314 12.5314 12.5314C12.8314 12.2313 13 11.8243 13 11.4V8.6C13 8.17565 12.8314 7.76869 12.5314 7.46863C12.2313 7.16857 11.8243 7 11.4 7Z" fill="#74C947"/>
</svg>
