<svg width="20" height="20" viewBox="0 0 20 20" fill="none" xmlns="http://www.w3.org/2000/svg">
<path d="M18.7489 9.99969L19.8529 8.09169C19.9856 7.86213 20.0217 7.58928 19.9532 7.33312C19.8848 7.07696 19.7174 6.85847 19.4879 6.72569L17.5779 5.62169V3.42169C17.5779 3.15647 17.4725 2.90212 17.285 2.71458C17.0975 2.52705 16.8431 2.42169 16.5779 2.42169H14.3789L13.2759 0.512691C13.1433 0.283022 12.925 0.115401 12.6689 0.0466913C12.542 0.0126928 12.4097 0.00402527 12.2794 0.0211836C12.1492 0.0383419 12.0236 0.0809899 11.9099 0.146691L9.99988 1.25069L8.08988 0.145691C7.86021 0.0130889 7.58726 -0.0228457 7.33109 0.0457922C7.07491 0.11443 6.8565 0.282018 6.72388 0.511691L5.61988 2.42169H3.42088C3.15567 2.42169 2.90131 2.52705 2.71378 2.71458C2.52624 2.90212 2.42088 3.15647 2.42088 3.42169V5.62069L0.510884 6.72469C0.397113 6.79044 0.297414 6.87796 0.217488 6.98226C0.137562 7.08656 0.0789756 7.20559 0.0450777 7.33255C0.0111797 7.4595 0.00263512 7.59189 0.0199322 7.72215C0.0372292 7.85241 0.0800286 7.97798 0.145884 8.09169L1.24988 9.99969L0.145884 11.9077C0.013873 12.1375 -0.0219438 12.4101 0.0462426 12.6662C0.114429 12.9223 0.281088 13.141 0.509884 13.2747L2.41988 14.3787V16.5777C2.41988 16.8429 2.52524 17.0973 2.71278 17.2848C2.90031 17.4723 3.15467 17.5777 3.41988 17.5777H5.61988L6.72388 19.4877C6.81242 19.639 6.93882 19.7647 7.09066 19.8524C7.2425 19.9401 7.41455 19.9867 7.58988 19.9877C7.76388 19.9877 7.93688 19.9417 8.09088 19.8527L9.99888 18.7487L11.9089 19.8527C12.1384 19.9854 12.4113 20.0215 12.6675 19.953C12.9236 19.8846 13.1421 19.7172 13.2749 19.4877L14.3779 17.5777H16.5769C16.8421 17.5777 17.0965 17.4723 17.284 17.2848C17.4715 17.0973 17.5769 16.8429 17.5769 16.5777V14.3787L19.4869 13.2747C19.6007 13.2089 19.7004 13.1214 19.7803 13.0171C19.8602 12.9128 19.9188 12.7938 19.9527 12.6668C19.9866 12.5399 19.9951 12.4075 19.9778 12.2772C19.9605 12.147 19.9177 12.0214 19.8519 11.9077L18.7489 9.99969ZM7.49888 4.98969C7.89684 4.98982 8.27845 5.14804 8.55975 5.42953C8.84106 5.71102 8.99902 6.09273 8.99888 6.49069C8.99875 6.88865 8.84054 7.27025 8.55904 7.55156C8.27755 7.83286 7.89584 7.99082 7.49788 7.99069C7.09993 7.99056 6.71832 7.83234 6.43702 7.55085C6.15571 7.26936 5.99775 6.88765 5.99788 6.48969C5.99802 6.09173 6.15623 5.71013 6.43772 5.42882C6.71922 5.14752 7.10093 4.98956 7.49888 4.98969ZM7.79888 14.5897L6.19888 13.3907L12.1989 5.39069L13.7989 6.58969L7.79888 14.5897ZM12.4989 14.9897C12.3018 14.9896 12.1067 14.9507 11.9247 14.8753C11.7427 14.7998 11.5773 14.6892 11.438 14.5499C11.2987 14.4105 11.1883 14.245 11.1129 14.0629C11.0376 13.8809 10.9988 13.6857 10.9989 13.4887C10.999 13.2916 11.0378 13.0965 11.1133 12.9145C11.1888 12.7325 11.2993 12.5671 11.4387 12.4278C11.5781 12.2885 11.7436 12.1781 11.9256 12.1027C12.1077 12.0274 12.3028 11.9886 12.4999 11.9887C12.8978 11.9888 13.2794 12.147 13.5608 12.4285C13.8421 12.71 14 13.0917 13.9999 13.4897C13.9998 13.8876 13.8415 14.2693 13.56 14.5506C13.2786 14.8319 12.8968 14.9898 12.4989 14.9897Z" fill="#74C947"/>
</svg>
