<svg width="24" height="24" viewBox="0 0 24 24" fill="none" xmlns="http://www.w3.org/2000/svg">
<path d="M6.455 19L3.61778 21.229C2.96165 21.7445 2 21.2771 2 20.4427V4C2 3.73478 2.10536 3.48043 2.29289 3.29289C2.48043 3.10536 2.73478 3 3 3H21C21.2652 3 21.5196 3.10536 21.7071 3.29289C21.8946 3.48043 22 3.73478 22 4V18C22 18.2652 21.8946 18.5196 21.7071 18.7071C21.5196 18.8946 21.2652 19 21 19H6.455ZM11.293 12.121L9.5255 10.3535C9.1348 9.9628 8.50131 9.96291 8.11075 10.3537C7.72038 10.7444 7.72049 11.3775 8.111 11.768L11.0642 14.7212C11.1905 14.8475 11.3955 14.8475 11.5218 14.7212L16.243 10C16.6334 9.60955 16.6334 8.97645 16.243 8.58596C15.8525 8.1955 15.2195 8.19547 14.829 8.58588L11.293 12.121Z" fill="#74C947"/>
</svg>
