<svg width="24" height="24" viewBox="0 0 24 24" fill="none" xmlns="http://www.w3.org/2000/svg">
<path d="M12.5174 3C9.56874 3 7.6589 4.14971 6.15947 6.20013C5.88747 6.57209 5.97132 7.08206 6.35075 7.35586L7.94434 8.50578C8.32754 8.78229 8.87276 8.71764 9.17277 8.35996C10.0981 7.25672 10.7845 6.62152 12.23 6.62152C13.3664 6.62152 14.7721 7.31757 14.7721 8.36636C14.7721 9.1592 14.0844 9.56638 12.9622 10.1651C11.6537 10.8633 9.92198 11.7322 9.92198 13.9059V14.25C9.92198 14.716 10.3189 15.0938 10.8086 15.0938H13.4858C13.9754 15.0938 14.3724 14.716 14.3724 14.25V14.047C14.3724 12.5402 19 12.4775 19 8.4C19 5.32931 15.653 3 12.5174 3ZM12.1472 16.1294C10.7362 16.1294 9.58821 17.2219 9.58821 18.5647C9.58821 19.9076 10.7362 21 12.1472 21C13.5582 21 14.7062 19.9075 14.7062 18.5647C14.7062 17.2219 13.5582 16.1294 12.1472 16.1294Z" fill="#74C947"/>
</svg>
