<svg width="24" height="24" viewBox="0 0 24 24" fill="none" xmlns="http://www.w3.org/2000/svg">
<path fill-rule="evenodd" clip-rule="evenodd" d="M3.4 4H20.6C21.2365 4 21.847 4.25286 22.2971 4.70294C22.7471 5.15303 23 5.76348 23 6.4V17.6C23 18.2365 22.7471 18.847 22.2971 19.2971C21.847 19.7471 21.2365 20 20.6 20H3.4C2.76348 20 2.15303 19.7471 1.70294 19.2971C1.25286 18.847 1 18.2365 1 17.6V6.4C1 5.76348 1.25286 5.15303 1.70294 4.70294C2.15303 4.25286 2.76348 4 3.4 4ZM4 9C4 8.73478 4.10536 8.48043 4.29289 8.29289C4.48043 8.10536 4.73478 8 5 8H10C10.2652 8 10.5196 8.10536 10.7071 8.29289C10.8946 8.48043 11 8.73478 11 9C11 9.26522 10.8946 9.51957 10.7071 9.70711C10.5196 9.89464 10.2652 10 10 10H5C4.73478 10 4.48043 9.89464 4.29289 9.70711C4.10536 9.51957 4 9.26522 4 9ZM5 11C4.73478 11 4.48043 11.1054 4.29289 11.2929C4.10536 11.4804 4 11.7348 4 12C4 12.2652 4.10536 12.5196 4.29289 12.7071C4.48043 12.8946 4.73478 13 5 13H10C10.2652 13 10.5196 12.8946 10.7071 12.7071C10.8946 12.5196 11 12.2652 11 12C11 11.7348 10.8946 11.4804 10.7071 11.2929C10.5196 11.1054 10.2652 11 10 11H5ZM5 14C4.73478 14 4.48043 14.1054 4.29289 14.2929C4.10536 14.4804 4 14.7348 4 15C4 15.2652 4.10536 15.5196 4.29289 15.7071C4.48043 15.8946 4.73478 16 5 16H10C10.2652 16 10.5196 15.8946 10.7071 15.7071C10.8946 15.5196 11 15.2652 11 15C11 14.7348 10.8946 14.4804 10.7071 14.2929C10.5196 14.1054 10.2652 14 10 14H5ZM15.707 14.707L19.707 10.707C19.8892 10.5184 19.99 10.2658 19.9877 10.0036C19.9854 9.7414 19.8802 9.49059 19.6948 9.30518C19.5094 9.11977 19.2586 9.0146 18.9964 9.01233C18.7342 9.01005 18.4816 9.11084 18.293 9.293L15 12.586L13.707 11.293C13.5184 11.1108 13.2658 11.01 13.0036 11.0123C12.7414 11.0146 12.4906 11.1198 12.3052 11.3052C12.1198 11.4906 12.0146 11.7414 12.0123 12.0036C12.01 12.2658 12.1108 12.5184 12.293 12.707L14.293 14.707C14.4805 14.8945 14.7348 14.9998 15 14.9998C15.2652 14.9998 15.5195 14.8945 15.707 14.707Z" fill="#74C947"/>
</svg>
